<?xml version="1.0" encoding="UTF-8" standalone="no"?>
<!-- Created with Inkscape (http://www.inkscape.org/) -->

<svg
   xmlns:rendltx="http://NOTSET"
   xmlns:osb="http://www.openswatchbook.org/uri/2009/osb"
   xmlns:dc="http://purl.org/dc/elements/1.1/"
   xmlns:cc="http://creativecommons.org/ns#"
   xmlns:rdf="http://www.w3.org/1999/02/22-rdf-syntax-ns#"
   xmlns:svg="http://www.w3.org/2000/svg"
   xmlns="http://www.w3.org/2000/svg"
   xmlns:xlink="http://www.w3.org/1999/xlink"
   xmlns:sodipodi="http://sodipodi.sourceforge.net/DTD/sodipodi-0.dtd"
   xmlns:inkscape="http://www.inkscape.org/namespaces/inkscape"
   width="60mm"
   height="35mm"
   viewBox="0 0 60 35"
   version="1.1"
   id="svg8"
   inkscape:version="0.92.2 (5c3e80d, 2017-08-06)"
   sodipodi:docname="commitTopology.svg">
  <sodipodi:namedview
     id="base"
     pagecolor="#ffffff"
     bordercolor="#666666"
     borderopacity="1.0"
     inkscape:pageopacity="0.0"
     inkscape:pageshadow="2"
     inkscape:zoom="2.8284271"
     inkscape:cx="162.09864"
     inkscape:cy="45.092707"
     inkscape:document-units="mm"
     inkscape:current-layer="layer1"
     showgrid="true"
     inkscape:snap-grids="true"
     inkscape:snap-to-guides="false"
     inkscape:snap-page="true"
     inkscape:window-width="1330"
     inkscape:window-height="1008"
     inkscape:window-x="-7"
     inkscape:window-y="0"
     inkscape:window-maximized="0">
    <inkscape:grid
       type="xygrid"
       id="grid815"
       units="mm"
       spacingx="2.5"
       spacingy="2.5"
       empcolor="#ff0000"
       empopacity="0.54901961"
       color="#3f3fff"
       opacity="0.41960784" />
  </sodipodi:namedview>
  <defs
     id="defs2">
    <marker
       inkscape:stockid="Arrow2Mend"
       orient="auto"
       refY="0"
       refX="0"
       id="marker8423"
       style="overflow:visible"
       inkscape:isstock="true">
      <path
         id="path8421"
         style="fill:#ff6496;fill-opacity:1;fill-rule:evenodd;stroke:#ff6496;stroke-width:0.625;stroke-linejoin:round;stroke-opacity:1"
         d="M 8.7185878,4.0337352 -2.2072895,0.01601326 8.7185884,-4.0017078 c -1.7454984,2.3720609 -1.7354408,5.6174519 -6e-7,8.035443 z"
         transform="scale(-0.6)"
         inkscape:connector-curvature="0" />
    </marker>
    <linearGradient
       id="linearGradient8363"
       osb:paint="solid">
      <stop
         style="stop-color:#6f6f6f;stop-opacity:1;"
         offset="0"
         id="stop8361" />
    </linearGradient>
    <marker
       inkscape:isstock="true"
       style="overflow:visible"
       id="marker6255"
       refX="0"
       refY="0"
       orient="auto"
       inkscape:stockid="Arrow2Mend">
      <path
         transform="scale(-0.6)"
         d="M 8.7185878,4.0337352 -2.2072895,0.01601326 8.7185884,-4.0017078 c -1.7454984,2.3720609 -1.7354408,5.6174519 -6e-7,8.035443 z"
         style="fill:#6f6f6f;fill-opacity:1;fill-rule:evenodd;stroke:#6f6f6f;stroke-width:0.625;stroke-linejoin:round;stroke-opacity:1"
         id="path6253"
         inkscape:connector-curvature="0" />
    </marker>
  </defs>
  <metadata
     id="metadata5">
    <rdf:RDF>
      <cc:Work
         rdf:about="">
        <dc:format>image/svg+xml</dc:format>
        <dc:type
           rdf:resource="http://purl.org/dc/dcmitype/StillImage" />
        <dc:title></dc:title>
      </cc:Work>
    </rdf:RDF>
  </metadata>
  <g
     inkscape:label="Layer 1"
     inkscape:groupmode="layer"
     id="layer1"
     transform="translate(0,-262)">
    <text
       xml:space="preserve"
       style="font-style:normal;font-weight:normal;font-size:3.52777767px;line-height:1.25;font-family:sans-serif;letter-spacing:0px;word-spacing:0px;fill:#000000;fill-opacity:1;stroke:none;stroke-width:0.26458332"
       x="78.95343"
       y="290.28311"
       id="text835"><tspan
         sodipodi:role="line"
         id="tspan833"
         x="78.95343"
         y="290.28311"
         style="stroke-width:0.26458332">Last week's commit</tspan></text>
    <path
       style="fill:none;stroke:#000000;stroke-width:0.26458332px;stroke-linecap:butt;stroke-linejoin:miter;stroke-opacity:1"
       d="m 5,274.5 c 0,20 0,20 0,20"
       id="path1572"
       inkscape:connector-curvature="0" />
    <circle
       style="opacity:0.99100001;fill:#000000;fill-opacity:1;fill-rule:evenodd;stroke:none;stroke-width:0.89999998;stroke-linecap:butt;stroke-linejoin:round;stroke-miterlimit:3.9666667;stroke-dasharray:none;stroke-dashoffset:0;stroke-opacity:1;paint-order:stroke fill markers"
       id="path1574"
       cx="5.000001"
       cy="294.5"
       r="1.500001" />
    <circle
       r="1.500001"
       cy="284.5"
       cx="5.000001"
       id="circle1576"
       style="opacity:0.99100001;fill:#000000;fill-opacity:1;fill-rule:evenodd;stroke:none;stroke-width:0.89999998;stroke-linecap:butt;stroke-linejoin:round;stroke-miterlimit:3.9666667;stroke-dasharray:none;stroke-dashoffset:0;stroke-opacity:1;paint-order:stroke fill markers" />
    <circle
       style="opacity:0.99100001;fill:#000000;fill-opacity:1;fill-rule:evenodd;stroke:none;stroke-width:0.89999998;stroke-linecap:butt;stroke-linejoin:round;stroke-miterlimit:3.9666667;stroke-dasharray:none;stroke-dashoffset:0;stroke-opacity:1;paint-order:stroke fill markers"
       id="circle1578"
       cx="5.000001"
       cy="274.5"
       r="1.500001" />
    <circle
       r="1.500001"
       cy="264.5"
       cx="5.000001"
       id="circle1580"
       style="opacity:0.99100001;fill:none;fill-opacity:1;fill-rule:evenodd;stroke:#000000;stroke-width:0.26499999;stroke-linecap:butt;stroke-linejoin:round;stroke-miterlimit:3.9666667;stroke-dasharray:0.265, 0.265;stroke-dashoffset:0;stroke-opacity:1;paint-order:stroke fill markers" />
    <path
       style="fill:none;stroke:#000000;stroke-width:0.26499999;stroke-linecap:butt;stroke-linejoin:miter;stroke-miterlimit:4;stroke-dasharray:0.26499999, 0.26499999;stroke-dashoffset:0;stroke-opacity:1"
       d="M 5,276 V 266"
       id="path1582"
       inkscape:connector-curvature="0" />
    <text
       id="text1586"
       y="283.00705"
       x="79.879471"
       style="font-style:normal;font-weight:normal;font-size:3.52777767px;line-height:1.25;font-family:sans-serif;letter-spacing:0px;word-spacing:0px;fill:#000000;fill-opacity:1;stroke:none;stroke-width:0.26458332"
       xml:space="preserve"><tspan
         style="stroke-width:0.26458332"
         y="283.00705"
         x="79.879471"
         id="tspan1584"
         sodipodi:role="line">Yesterday's commit</tspan></text>
    <text
       xml:space="preserve"
       style="font-style:normal;font-weight:normal;font-size:3.52777767px;line-height:1.25;font-family:sans-serif;letter-spacing:0px;word-spacing:0px;fill:#000000;fill-opacity:1;stroke:none;stroke-width:0.26458332"
       x="78.95343"
       y="272.95288"
       id="text1590"><tspan
         sodipodi:role="line"
         id="tspan1588"
         x="78.95343"
         y="272.95288"
         style="stroke-width:0.26458332">Last commit</tspan></text>
    <text
       id="text1594"
       y="262.23724"
       x="78.821136"
       style="font-style:normal;font-weight:normal;font-size:3.52777767px;line-height:1.25;font-family:sans-serif;letter-spacing:0px;word-spacing:0px;fill:#000000;fill-opacity:1;stroke:none;stroke-width:0.26458332"
       xml:space="preserve"><tspan
         style="stroke-width:0.26458332"
         y="262.23724"
         x="78.821136"
         id="tspan1592"
         sodipodi:role="line">Non-committed alterations</tspan></text>
  </g>
  <g
     transform="translate(0,-25)"
     inkscape:label="Rendered Latex"
     inkscape:groupmode="layer"
     id="ltx-render-layer"
     rendltx:preamble=""
     rendltx:scale="1.0"
     rendltx:depth="0"
     rendltx:fontsize="12"
     rendltx:newline="False"
     rendltx:math="False">
    <g
       id="lx-text835"
       transform="matrix(0.352778,0,0,0.352778,9.8291232,58.941429)">
      <defs
         id="defs2355">
        <g
           id="g2353">
          <symbol
             id="lx-text835-glyph0-0"
             overflow="visible"
             style="overflow:visible">
            <path
               id="path2314"
               d=""
               style="stroke:none"
               inkscape:connector-curvature="0" />
          </symbol>
          <symbol
             id="lx-text835-glyph0-1"
             overflow="visible"
             style="overflow:visible">
            <path
               id="path2317"
               d="M 6.8125,-3.0625 H 6.546875 C 6.4375,-1.859375 6.28125,-0.34375 4.1875,-0.34375 H 3.140625 C 2.625,-0.34375 2.59375,-0.4375 2.59375,-0.828125 V -7.25 c 0,-0.421875 0.03125,-0.5625 1.0625,-0.5625 h 0.359375 v -0.34375 c -0.34375,0.015625 -1.390625,0.015625 -1.8125,0.015625 -0.359375,0 -1.421875,0 -1.71875,-0.015625 v 0.34375 h 0.25 C 1.59375,-7.8125 1.625,-7.703125 1.625,-7.25 v 6.34375 c 0,0.4375 -0.03125,0.5625 -0.890625,0.5625 h -0.25 V 0 H 6.5 Z m 0,0"
               style="stroke:none"
               inkscape:connector-curvature="0" />
          </symbol>
          <symbol
             id="lx-text835-glyph0-2"
             overflow="visible"
             style="overflow:visible">
            <path
               id="path2320"
               d="m 4.609375,-3.1875 c 0,-0.65625 0,-1.125 -0.515625,-1.59375 C 3.671875,-5.15625 3.125,-5.328125 2.609375,-5.328125 1.625,-5.328125 0.875,-4.6875 0.875,-3.90625 c 0,0.34375 0.21875,0.515625 0.5,0.515625 0.28125,0 0.484375,-0.203125 0.484375,-0.5 C 1.859375,-4.375 1.4375,-4.375 1.25,-4.375 c 0.28125,-0.5 0.859375,-0.71875 1.328125,-0.71875 0.546875,0 1.265625,0.453125 1.265625,1.53125 v 0.484375 c -2.40625,0.03125 -3.3125,1.03125 -3.3125,1.953125 0,0.953125 1.09375,1.25 1.828125,1.25 0.78125,0 1.328125,-0.484375 1.546875,-1.0625 0.046875,0.5625 0.421875,1 0.9375,1 0.25,0 0.9375,-0.171875 0.9375,-1.125 V -1.734375 H 5.515625 V -1.0625 c 0,0.6875 -0.28125,0.78125 -0.453125,0.78125 -0.453125,0 -0.453125,-0.640625 -0.453125,-0.8125 z m -0.765625,1.5 c 0,1.171875 -0.875,1.5625 -1.390625,1.5625 -0.59375,0 -1.078125,-0.421875 -1.078125,-1 0,-1.578125 2.03125,-1.71875 2.46875,-1.75 z m 0,0"
               style="stroke:none"
               inkscape:connector-curvature="0" />
          </symbol>
          <symbol
             id="lx-text835-glyph0-3"
             overflow="visible"
             style="overflow:visible">
            <path
               id="path2323"
               d="m 3.921875,-5.0625 c 0,-0.203125 0,-0.265625 -0.125,-0.265625 -0.09375,0 -0.3125,0.265625 -0.40625,0.375 -0.359375,-0.3125 -0.734375,-0.375 -1.125,-0.375 -1.4375,0 -1.875,0.78125 -1.875,1.4375 0,0.140625 0,0.5625 0.453125,0.96875 0.390625,0.34375 0.796875,0.421875 1.34375,0.53125 0.65625,0.125 0.8125,0.171875 1.109375,0.40625 0.21875,0.171875 0.375,0.4375 0.375,0.78125 C 3.671875,-0.6875 3.375,-0.125 2.3125,-0.125 1.53125,-0.125 0.953125,-0.578125 0.6875,-1.765625 0.640625,-1.984375 0.640625,-2 0.640625,-2.015625 0.609375,-2.0625 0.5625,-2.0625 0.53125,-2.0625 0.390625,-2.0625 0.390625,-2 0.390625,-1.78125 v 1.625 c 0,0.21875 0,0.28125 0.125,0.28125 0.0625,0 0.0625,-0.015625 0.265625,-0.265625 C 0.84375,-0.234375 0.84375,-0.25 1.03125,-0.4375 1.484375,0.125 2.125,0.125 2.328125,0.125 c 1.25,0 1.875,-0.703125 1.875,-1.640625 0,-0.640625 -0.390625,-1.03125 -0.5,-1.140625 -0.421875,-0.375 -0.75,-0.4375 -1.546875,-0.578125 -0.34375,-0.078125 -1.21875,-0.25 -1.21875,-0.96875 0,-0.359375 0.25,-0.90625 1.328125,-0.90625 1.296875,0 1.375,1.109375 1.390625,1.46875 0.015625,0.109375 0.09375,0.109375 0.140625,0.109375 0.125,0 0.125,-0.0625 0.125,-0.28125 z m 0,0"
               style="stroke:none"
               inkscape:connector-curvature="0" />
          </symbol>
          <symbol
             id="lx-text835-glyph0-4"
             overflow="visible"
             style="overflow:visible">
            <path
               id="path2326"
               d="M 2.015625,-4.8125 H 3.6875 V -5.15625 H 2.015625 v -2.1875 H 1.75 C 1.734375,-6.234375 1.296875,-5.078125 0.21875,-5.046875 V -4.8125 h 1.015625 v 3.328125 c 0,1.328125 0.875,1.609375 1.515625,1.609375 0.75,0 1.140625,-0.75 1.140625,-1.609375 V -2.15625 h -0.25 V -1.5 c 0,0.859375 -0.359375,1.359375 -0.8125,1.359375 -0.8125,0 -0.8125,-1.109375 -0.8125,-1.3125 z m 0,0"
               style="stroke:none"
               inkscape:connector-curvature="0" />
          </symbol>
          <symbol
             id="lx-text835-glyph0-5"
             overflow="visible"
             style="overflow:visible">
            <path
               id="path2329"
               d="M 7.234375,-4.015625 C 7.5,-4.765625 8.015625,-4.796875 8.21875,-4.8125 V -5.15625 C 7.921875,-5.125 7.703125,-5.125 7.34375,-5.125 c -0.34375,0 -0.375,0 -1.015625,-0.03125 V -4.8125 C 6.859375,-4.78125 7,-4.453125 7,-4.234375 c 0,0.015625 0,0.09375 -0.046875,0.21875 l -1.09375,3.125 -1.203125,-3.375 C 4.609375,-4.40625 4.609375,-4.4375 4.609375,-4.46875 c 0,-0.34375 0.4375,-0.34375 0.6875,-0.34375 V -5.15625 C 4.953125,-5.125 4.46875,-5.125 4.125,-5.125 c -0.390625,0 -0.40625,0 -1.078125,-0.03125 v 0.34375 c 0.453125,0 0.609375,0.03125 0.75,0.1875 C 3.84375,-4.546875 4,-4.15625 4.078125,-3.921875 L 3.0625,-1 1.90625,-4.25 C 1.859375,-4.40625 1.859375,-4.4375 1.859375,-4.484375 1.859375,-4.8125 2.3125,-4.8125 2.546875,-4.8125 V -5.15625 C 2.25,-5.125 1.65625,-5.125 1.328125,-5.125 c -0.34375,0 -0.359375,0 -1.109375,-0.03125 v 0.34375 c 0.609375,0 0.71875,0.0625 0.859375,0.4375 l 1.5,4.28125 C 2.625,0.03125 2.671875,0.125 2.796875,0.125 2.90625,0.125 2.96875,0.078125 3.03125,-0.109375 l 1.1875,-3.40625 1.203125,3.40625 C 5.46875,0.078125 5.53125,0.125 5.640625,0.125 c 0.125,0 0.171875,-0.09375 0.21875,-0.21875 z m 0,0"
               style="stroke:none"
               inkscape:connector-curvature="0" />
          </symbol>
          <symbol
             id="lx-text835-glyph0-6"
             overflow="visible"
             style="overflow:visible">
            <path
               id="path2332"
               d="m 4.578125,-2.765625 c 0.265625,0 0.28125,0 0.28125,-0.234375 0,-1.203125 -0.640625,-2.328125 -2.09375,-2.328125 -1.359375,0 -2.40625,1.234375 -2.40625,2.703125 0,1.578125 1.21875,2.75 2.546875,2.75 1.421875,0 1.953125,-1.296875 1.953125,-1.546875 0,-0.078125 -0.046875,-0.125 -0.125,-0.125 -0.09375,0 -0.125,0.0625 -0.140625,0.125 -0.3125,1 -1.109375,1.28125 -1.625,1.28125 -0.5,0 -1.703125,-0.34375 -1.703125,-2.40625 v -0.21875 z M 1.28125,-3 c 0.09375,-1.875 1.140625,-2.09375 1.484375,-2.09375 1.28125,0 1.34375,1.6875 1.359375,2.09375 z m 0,0"
               style="stroke:none"
               inkscape:connector-curvature="0" />
          </symbol>
          <symbol
             id="lx-text835-glyph0-7"
             overflow="visible"
             style="overflow:visible">
            <path
               id="path2335"
               d="m 3.34375,-3.171875 c 0,0 -0.078125,-0.109375 -0.078125,-0.109375 0,-0.046875 0.75,-0.6875 0.84375,-0.78125 C 4.9375,-4.78125 5.46875,-4.796875 5.71875,-4.8125 V -5.15625 C 5.46875,-5.125 5.15625,-5.125 4.8125,-5.125 c -0.3125,0 -0.921875,0 -1.203125,-0.03125 v 0.34375 c 0.203125,0.015625 0.34375,0.125 0.34375,0.3125 0,0.25 -0.234375,0.453125 -0.25,0.453125 L 2,-2.53125 V -8.296875 L 0.328125,-8.15625 v 0.34375 c 0.8125,0 0.921875,0.078125 0.921875,0.671875 v 6.25 c 0,0.546875 -0.140625,0.546875 -0.921875,0.546875 V 0 c 0.34375,-0.03125 0.921875,-0.03125 1.28125,-0.03125 0.34375,0 0.921875,0 1.265625,0.03125 v -0.34375 c -0.765625,0 -0.921875,0 -0.921875,-0.546875 V -2.15625 L 2.71875,-2.828125 3.875,-1.171875 c 0.171875,0.25 0.265625,0.390625 0.265625,0.546875 0,0.21875 -0.171875,0.28125 -0.421875,0.28125 V 0 c 0.296875,-0.03125 0.890625,-0.03125 1.203125,-0.03125 0.515625,0 0.546875,0 1.046875,0.03125 v -0.34375 c -0.3125,0 -0.6875,0 -1.015625,-0.5 z m 0,0"
               style="stroke:none"
               inkscape:connector-curvature="0" />
          </symbol>
          <symbol
             id="lx-text835-glyph0-8"
             overflow="visible"
             style="overflow:visible">
            <path
               id="path2338"
               d="m 2.109375,-7.375 c 0,0.078125 0.015625,0.140625 0.015625,0.296875 0,0.171875 0,1.140625 -0.828125,1.96875 -0.109375,0.09375 -0.109375,0.125 -0.109375,0.15625 0,0.0625 0.0625,0.125 0.125,0.125 0.109375,0 1.046875,-0.890625 1.046875,-2.25 0,-0.734375 -0.265625,-1.21875 -0.75,-1.21875 -0.34375,0 -0.5625,0.265625 -0.5625,0.578125 0,0.3125 0.21875,0.578125 0.578125,0.578125 0.328125,0 0.484375,-0.21875 0.484375,-0.234375 z m 0,0"
               style="stroke:none"
               inkscape:connector-curvature="0" />
          </symbol>
          <symbol
             id="lx-text835-glyph0-9"
             overflow="visible"
             style="overflow:visible">
            <path
               id="path2341"
               d="m 4.328125,-4.421875 c -0.140625,0 -0.59375,0 -0.59375,0.484375 0,0.296875 0.203125,0.5 0.5,0.5 0.265625,0 0.5,-0.171875 0.5,-0.515625 0,-0.796875 -0.84375,-1.375 -1.8125,-1.375 -1.390625,0 -2.5,1.234375 -2.5,2.75 0,1.53125 1.140625,2.703125 2.5,2.703125 1.578125,0 1.9375,-1.4375 1.9375,-1.546875 0,-0.109375 -0.09375,-0.109375 -0.125,-0.109375 -0.109375,0 -0.125,0.03125 -0.15625,0.1875 C 4.3125,-0.5 3.671875,-0.140625 3.03125,-0.140625 c -0.734375,0 -1.703125,-0.640625 -1.703125,-2.453125 0,-1.984375 1.015625,-2.46875 1.609375,-2.46875 0.453125,0 1.109375,0.171875 1.390625,0.640625 z m 0,0"
               style="stroke:none"
               inkscape:connector-curvature="0" />
          </symbol>
          <symbol
             id="lx-text835-glyph0-10"
             overflow="visible"
             style="overflow:visible">
            <path
               id="path2344"
               d="m 5.484375,-2.5625 c 0,-1.53125 -1.171875,-2.765625 -2.5625,-2.765625 -1.421875,0 -2.5625,1.265625 -2.5625,2.765625 0,1.53125 1.1875,2.6875 2.5625,2.6875 1.40625,0 2.5625,-1.171875 2.5625,-2.6875 z m -2.5625,2.421875 c -0.4375,0 -0.96875,-0.1875 -1.3125,-0.78125 -0.328125,-0.53125 -0.34375,-1.234375 -0.34375,-1.75 0,-0.453125 0,-1.171875 0.375,-1.71875 C 1.96875,-4.90625 2.5,-5.09375 2.921875,-5.09375 c 0.453125,0 0.96875,0.21875 1.28125,0.6875 0.375,0.546875 0.375,1.296875 0.375,1.734375 0,0.421875 0,1.171875 -0.3125,1.734375 C 3.9375,-0.375 3.375,-0.140625 2.921875,-0.140625 Z m 0,0"
               style="stroke:none"
               inkscape:connector-curvature="0" />
          </symbol>
          <symbol
             id="lx-text835-glyph0-11"
             overflow="visible"
             style="overflow:visible">
            <path
               id="path2347"
               d="m 8.578125,-2.90625 c 0,-1.109375 0,-1.4375 -0.28125,-1.828125 -0.34375,-0.46875 -0.90625,-0.53125 -1.3125,-0.53125 -1,0 -1.5,0.71875 -1.6875,1.171875 -0.171875,-0.921875 -0.8125,-1.171875 -1.5625,-1.171875 -1.171875,0 -1.625,0.984375 -1.71875,1.21875 v -1.21875 l -1.640625,0.125 v 0.34375 c 0.8125,0 0.921875,0.09375 0.921875,0.671875 v 3.234375 c 0,0.546875 -0.140625,0.546875 -0.921875,0.546875 V 0 c 0.3125,-0.03125 0.96875,-0.03125 1.296875,-0.03125 0.34375,0 1,0 1.296875,0.03125 v -0.34375 c -0.75,0 -0.90625,0 -0.90625,-0.546875 v -2.21875 c 0,-1.25 0.828125,-1.921875 1.578125,-1.921875 0.734375,0 0.90625,0.609375 0.90625,1.34375 v 2.796875 c 0,0.546875 -0.140625,0.546875 -0.90625,0.546875 V 0 c 0.296875,-0.03125 0.953125,-0.03125 1.28125,-0.03125 0.34375,0 1,0 1.3125,0.03125 v -0.34375 c -0.765625,0 -0.921875,0 -0.921875,-0.546875 v -2.21875 c 0,-1.25 0.828125,-1.921875 1.578125,-1.921875 0.734375,0 0.90625,0.609375 0.90625,1.34375 v 2.796875 c 0,0.546875 -0.140625,0.546875 -0.90625,0.546875 V 0 c 0.3125,-0.03125 0.953125,-0.03125 1.28125,-0.03125 0.34375,0 1,0 1.3125,0.03125 v -0.34375 c -0.609375,0 -0.90625,0 -0.90625,-0.359375 z m 0,0"
               style="stroke:none"
               inkscape:connector-curvature="0" />
          </symbol>
          <symbol
             id="lx-text835-glyph0-12"
             overflow="visible"
             style="overflow:visible">
            <path
               id="path2350"
               d="m 2.078125,-7.359375 c 0,-0.3125 -0.25,-0.59375 -0.578125,-0.59375 -0.3125,0 -0.578125,0.25 -0.578125,0.578125 0,0.359375 0.28125,0.578125 0.578125,0.578125 0.359375,0 0.578125,-0.296875 0.578125,-0.5625 z M 0.4375,-5.140625 v 0.34375 c 0.75,0 0.859375,0.078125 0.859375,0.65625 v 3.25 c 0,0.546875 -0.125,0.546875 -0.90625,0.546875 V 0 c 0.34375,-0.03125 0.90625,-0.03125 1.265625,-0.03125 0.125,0 0.8125,0 1.21875,0.03125 v -0.34375 c -0.765625,0 -0.8125,-0.0625 -0.8125,-0.53125 v -4.390625 z m 0,0"
               style="stroke:none"
               inkscape:connector-curvature="0" />
          </symbol>
        </g>
      </defs>
      <g
         id="lx-text835-surface1">
        <g
           id="g2365"
           style="fill:#000000;fill-opacity:1">
          <use
             id="use2357"
             y="0"
             x="0"
             xlink:href="#lx-text835-glyph0-1"
             width="100%"
             height="100%" />
          <use
             id="use2359"
             y="0"
             x="7.3141909"
             xlink:href="#lx-text835-glyph0-2"
             width="100%"
             height="100%" />
          <use
             id="use2361"
             y="0"
             x="13.167457"
             xlink:href="#lx-text835-glyph0-3"
             width="100%"
             height="100%" />
          <use
             id="use2363"
             y="0"
             x="17.784555"
             xlink:href="#lx-text835-glyph0-4"
             width="100%"
             height="100%" />
        </g>
        <g
           id="g2369"
           style="fill:#000000;fill-opacity:1">
          <use
             id="use2367"
             y="0"
             x="26.234491"
             xlink:href="#lx-text835-glyph0-5"
             width="100%"
             height="100%" />
        </g>
        <g
           id="g2381"
           style="fill:#000000;fill-opacity:1">
          <use
             id="use2371"
             y="0"
             x="34.366417"
             xlink:href="#lx-text835-glyph0-6"
             width="100%"
             height="100%" />
          <use
             id="use2373"
             y="0"
             x="39.569321"
             xlink:href="#lx-text835-glyph0-6"
             width="100%"
             height="100%" />
          <use
             id="use2375"
             y="0"
             x="44.772224"
             xlink:href="#lx-text835-glyph0-7"
             width="100%"
             height="100%" />
          <use
             id="use2377"
             y="0"
             x="50.950672"
             xlink:href="#lx-text835-glyph0-8"
             width="100%"
             height="100%" />
          <use
             id="use2379"
             y="0"
             x="54.202484"
             xlink:href="#lx-text835-glyph0-3"
             width="100%"
             height="100%" />
        </g>
        <g
           id="g2395"
           style="fill:#000000;fill-opacity:1">
          <use
             id="use2383"
             y="0"
             x="62.71698"
             xlink:href="#lx-text835-glyph0-9"
             width="100%"
             height="100%" />
          <use
             id="use2385"
             y="0"
             x="67.919884"
             xlink:href="#lx-text835-glyph0-10"
             width="100%"
             height="100%" />
          <use
             id="use2387"
             y="0"
             x="73.773148"
             xlink:href="#lx-text835-glyph0-11"
             width="100%"
             height="100%" />
          <use
             id="use2389"
             y="0"
             x="83.528587"
             xlink:href="#lx-text835-glyph0-11"
             width="100%"
             height="100%" />
          <use
             id="use2391"
             y="0"
             x="93.284035"
             xlink:href="#lx-text835-glyph0-12"
             width="100%"
             height="100%" />
          <use
             id="use2393"
             y="0"
             x="96.535851"
             xlink:href="#lx-text835-glyph0-4"
             width="100%"
             height="100%" />
        </g>
      </g>
    </g>
    <g
       id="lx-text1586"
       transform="matrix(0.352778,0,0,0.352778,9.9559028,48.533529)">
      <defs
         id="defs2443">
        <g
           id="g2441">
          <symbol
             id="lx-text1586-glyph0-0"
             overflow="visible"
             style="overflow:visible">
            <path
               id="path2399"
               d=""
               style="stroke:none"
               inkscape:connector-curvature="0" />
          </symbol>
          <symbol
             id="lx-text1586-glyph0-1"
             overflow="visible"
             style="overflow:visible">
            <path
               id="path2402"
               d="M 7.1875,-7.046875 C 7.578125,-7.671875 8.125,-7.8125 8.640625,-7.8125 v -0.34375 c -0.671875,0.015625 -0.6875,0.015625 -1.109375,0.015625 -0.328125,0 -0.921875,0 -1.21875,-0.015625 v 0.34375 c 0.34375,0 0.59375,0.15625 0.59375,0.4375 0,0.15625 -0.015625,0.1875 -0.140625,0.375 L 4.75,-3.703125 2.515625,-7.296875 c -0.0625,-0.125 -0.09375,-0.15625 -0.09375,-0.234375 0,-0.25 0.3125,-0.28125 0.75,-0.28125 v -0.34375 c -0.28125,0.015625 -1.25,0.015625 -1.578125,0.015625 -0.34375,0 -1.1875,0 -1.46875,-0.015625 v 0.34375 c 0.84375,0 1,0.03125 1.265625,0.46875 l 2.515625,4.078125 v 2.359375 c 0,0.4375 -0.03125,0.5625 -0.890625,0.5625 h -0.25 V 0 C 3.046875,-0.03125 4.03125,-0.03125 4.375,-0.03125 c 0.34375,0 1.328125,0 1.609375,0.03125 V -0.34375 H 5.75 c -0.875,0 -0.890625,-0.125 -0.890625,-0.546875 V -3.28125 Z m 0,0"
               style="stroke:none"
               inkscape:connector-curvature="0" />
          </symbol>
          <symbol
             id="lx-text1586-glyph0-2"
             overflow="visible"
             style="overflow:visible">
            <path
               id="path2405"
               d="m 4.578125,-2.765625 c 0.265625,0 0.28125,0 0.28125,-0.234375 0,-1.203125 -0.640625,-2.328125 -2.09375,-2.328125 -1.359375,0 -2.40625,1.234375 -2.40625,2.703125 0,1.578125 1.21875,2.75 2.546875,2.75 1.421875,0 1.953125,-1.296875 1.953125,-1.546875 0,-0.078125 -0.046875,-0.125 -0.125,-0.125 -0.09375,0 -0.125,0.0625 -0.140625,0.125 -0.3125,1 -1.109375,1.28125 -1.625,1.28125 -0.5,0 -1.703125,-0.34375 -1.703125,-2.40625 v -0.21875 z M 1.28125,-3 c 0.09375,-1.875 1.140625,-2.09375 1.484375,-2.09375 1.28125,0 1.34375,1.6875 1.359375,2.09375 z m 0,0"
               style="stroke:none"
               inkscape:connector-curvature="0" />
          </symbol>
          <symbol
             id="lx-text1586-glyph0-3"
             overflow="visible"
             style="overflow:visible">
            <path
               id="path2408"
               d="m 3.921875,-5.0625 c 0,-0.203125 0,-0.265625 -0.125,-0.265625 -0.09375,0 -0.3125,0.265625 -0.40625,0.375 -0.359375,-0.3125 -0.734375,-0.375 -1.125,-0.375 -1.4375,0 -1.875,0.78125 -1.875,1.4375 0,0.140625 0,0.5625 0.453125,0.96875 0.390625,0.34375 0.796875,0.421875 1.34375,0.53125 0.65625,0.125 0.8125,0.171875 1.109375,0.40625 0.21875,0.171875 0.375,0.4375 0.375,0.78125 C 3.671875,-0.6875 3.375,-0.125 2.3125,-0.125 1.53125,-0.125 0.953125,-0.578125 0.6875,-1.765625 0.640625,-1.984375 0.640625,-2 0.640625,-2.015625 0.609375,-2.0625 0.5625,-2.0625 0.53125,-2.0625 0.390625,-2.0625 0.390625,-2 0.390625,-1.78125 v 1.625 c 0,0.21875 0,0.28125 0.125,0.28125 0.0625,0 0.0625,-0.015625 0.265625,-0.265625 C 0.84375,-0.234375 0.84375,-0.25 1.03125,-0.4375 1.484375,0.125 2.125,0.125 2.328125,0.125 c 1.25,0 1.875,-0.703125 1.875,-1.640625 0,-0.640625 -0.390625,-1.03125 -0.5,-1.140625 -0.421875,-0.375 -0.75,-0.4375 -1.546875,-0.578125 -0.34375,-0.078125 -1.21875,-0.25 -1.21875,-0.96875 0,-0.359375 0.25,-0.90625 1.328125,-0.90625 1.296875,0 1.375,1.109375 1.390625,1.46875 0.015625,0.109375 0.09375,0.109375 0.140625,0.109375 0.125,0 0.125,-0.0625 0.125,-0.28125 z m 0,0"
               style="stroke:none"
               inkscape:connector-curvature="0" />
          </symbol>
          <symbol
             id="lx-text1586-glyph0-4"
             overflow="visible"
             style="overflow:visible">
            <path
               id="path2411"
               d="M 2.015625,-4.8125 H 3.6875 V -5.15625 H 2.015625 v -2.1875 H 1.75 C 1.734375,-6.234375 1.296875,-5.078125 0.21875,-5.046875 V -4.8125 h 1.015625 v 3.328125 c 0,1.328125 0.875,1.609375 1.515625,1.609375 0.75,0 1.140625,-0.75 1.140625,-1.609375 V -2.15625 h -0.25 V -1.5 c 0,0.859375 -0.359375,1.359375 -0.8125,1.359375 -0.8125,0 -0.8125,-1.109375 -0.8125,-1.3125 z m 0,0"
               style="stroke:none"
               inkscape:connector-curvature="0" />
          </symbol>
          <symbol
             id="lx-text1586-glyph0-5"
             overflow="visible"
             style="overflow:visible">
            <path
               id="path2414"
               d="m 2,-2.78125 c 0,-1.15625 0.46875,-2.25 1.390625,-2.25 0.09375,0 0.125,0 0.171875,0.015625 -0.09375,0.046875 -0.28125,0.109375 -0.28125,0.4375 0,0.34375 0.265625,0.484375 0.453125,0.484375 0.25,0 0.484375,-0.15625 0.484375,-0.484375 0,-0.359375 -0.328125,-0.6875 -0.84375,-0.6875 -1.015625,0 -1.359375,1.09375 -1.421875,1.328125 H 1.9375 v -1.328125 l -1.609375,0.125 v 0.34375 c 0.8125,0 0.921875,0.09375 0.921875,0.671875 v 3.234375 c 0,0.546875 -0.140625,0.546875 -0.921875,0.546875 V 0 c 0.34375,-0.03125 1,-0.03125 1.359375,-0.03125 0.328125,0 1.171875,0 1.4375,0.03125 V -0.34375 H 2.890625 C 2.015625,-0.34375 2,-0.484375 2,-0.90625 Z m 0,0"
               style="stroke:none"
               inkscape:connector-curvature="0" />
          </symbol>
          <symbol
             id="lx-text1586-glyph0-6"
             overflow="visible"
             style="overflow:visible">
            <path
               id="path2417"
               d="M 3.578125,-8.15625 V -7.8125 C 4.40625,-7.8125 4.5,-7.734375 4.5,-7.140625 V -4.5 C 4.25,-4.859375 3.734375,-5.265625 3,-5.265625 c -1.390625,0 -2.578125,1.171875 -2.578125,2.703125 0,1.515625 1.125,2.6875 2.453125,2.6875 0.90625,0 1.421875,-0.609375 1.59375,-0.828125 V 0.125 L 6.15625,0 V -0.34375 C 5.34375,-0.34375 5.25,-0.4375 5.25,-1.015625 v -7.28125 z m 0.890625,6.75 c 0,0.21875 0,0.265625 -0.171875,0.515625 -0.28125,0.421875 -0.765625,0.765625 -1.375,0.765625 -0.296875,0 -1.59375,-0.109375 -1.59375,-2.4375 0,-0.859375 0.140625,-1.328125 0.40625,-1.734375 0.234375,-0.359375 0.71875,-0.734375 1.3125,-0.734375 0.75,0 1.15625,0.53125 1.28125,0.734375 0.140625,0.203125 0.140625,0.21875 0.140625,0.4375 z m 0,0"
               style="stroke:none"
               inkscape:connector-curvature="0" />
          </symbol>
          <symbol
             id="lx-text1586-glyph0-7"
             overflow="visible"
             style="overflow:visible">
            <path
               id="path2420"
               d="m 4.609375,-3.1875 c 0,-0.65625 0,-1.125 -0.515625,-1.59375 C 3.671875,-5.15625 3.125,-5.328125 2.609375,-5.328125 1.625,-5.328125 0.875,-4.6875 0.875,-3.90625 c 0,0.34375 0.21875,0.515625 0.5,0.515625 0.28125,0 0.484375,-0.203125 0.484375,-0.5 C 1.859375,-4.375 1.4375,-4.375 1.25,-4.375 c 0.28125,-0.5 0.859375,-0.71875 1.328125,-0.71875 0.546875,0 1.265625,0.453125 1.265625,1.53125 v 0.484375 c -2.40625,0.03125 -3.3125,1.03125 -3.3125,1.953125 0,0.953125 1.09375,1.25 1.828125,1.25 0.78125,0 1.328125,-0.484375 1.546875,-1.0625 0.046875,0.5625 0.421875,1 0.9375,1 0.25,0 0.9375,-0.171875 0.9375,-1.125 V -1.734375 H 5.515625 V -1.0625 c 0,0.6875 -0.28125,0.78125 -0.453125,0.78125 -0.453125,0 -0.453125,-0.640625 -0.453125,-0.8125 z m -0.765625,1.5 c 0,1.171875 -0.875,1.5625 -1.390625,1.5625 -0.59375,0 -1.078125,-0.421875 -1.078125,-1 0,-1.578125 2.03125,-1.71875 2.46875,-1.75 z m 0,0"
               style="stroke:none"
               inkscape:connector-curvature="0" />
          </symbol>
          <symbol
             id="lx-text1586-glyph0-8"
             overflow="visible"
             style="overflow:visible">
            <path
               id="path2423"
               d="m 4.84375,-4 c 0.3125,-0.796875 0.875,-0.8125 1.109375,-0.8125 V -5.15625 C 5.609375,-5.125 5.4375,-5.125 5.0625,-5.125 c -0.28125,0 -0.3125,0 -0.96875,-0.03125 V -4.8125 C 4.53125,-4.78125 4.640625,-4.5 4.640625,-4.296875 4.640625,-4.1875 4.609375,-4.125 4.5625,-4 L 3.34375,-0.984375 2.015625,-4.25 c -0.0625,-0.15625 -0.0625,-0.234375 -0.0625,-0.25 0,-0.3125 0.40625,-0.3125 0.65625,-0.3125 V -5.15625 C 2.296875,-5.125 1.703125,-5.125 1.375,-5.125 c -0.453125,0 -0.484375,0 -1.15625,-0.03125 v 0.34375 c 0.6875,0 0.78125,0.0625 0.9375,0.4375 L 2.9375,0 C 2.421875,1.265625 2.421875,1.296875 2.359375,1.390625 2.15625,1.75 1.84375,2.203125 1.296875,2.203125 c -0.359375,0 -0.59375,-0.21875 -0.59375,-0.21875 0,0 0.421875,-0.046875 0.421875,-0.46875 0,-0.28125 -0.234375,-0.4375 -0.4375,-0.4375 -0.203125,0 -0.453125,0.109375 -0.453125,0.46875 0,0.453125 0.4375,0.890625 1.0625,0.890625 0.671875,0 1.171875,-0.578125 1.46875,-1.34375 z m 0,0"
               style="stroke:none"
               inkscape:connector-curvature="0" />
          </symbol>
          <symbol
             id="lx-text1586-glyph0-9"
             overflow="visible"
             style="overflow:visible">
            <path
               id="path2426"
               d="m 2.109375,-7.375 c 0,0.078125 0.015625,0.140625 0.015625,0.296875 0,0.171875 0,1.140625 -0.828125,1.96875 -0.109375,0.09375 -0.109375,0.125 -0.109375,0.15625 0,0.0625 0.0625,0.125 0.125,0.125 0.109375,0 1.046875,-0.890625 1.046875,-2.25 0,-0.734375 -0.265625,-1.21875 -0.75,-1.21875 -0.34375,0 -0.5625,0.265625 -0.5625,0.578125 0,0.3125 0.21875,0.578125 0.578125,0.578125 0.328125,0 0.484375,-0.21875 0.484375,-0.234375 z m 0,0"
               style="stroke:none"
               inkscape:connector-curvature="0" />
          </symbol>
          <symbol
             id="lx-text1586-glyph0-10"
             overflow="visible"
             style="overflow:visible">
            <path
               id="path2429"
               d="m 4.328125,-4.421875 c -0.140625,0 -0.59375,0 -0.59375,0.484375 0,0.296875 0.203125,0.5 0.5,0.5 0.265625,0 0.5,-0.171875 0.5,-0.515625 0,-0.796875 -0.84375,-1.375 -1.8125,-1.375 -1.390625,0 -2.5,1.234375 -2.5,2.75 0,1.53125 1.140625,2.703125 2.5,2.703125 1.578125,0 1.9375,-1.4375 1.9375,-1.546875 0,-0.109375 -0.09375,-0.109375 -0.125,-0.109375 -0.109375,0 -0.125,0.03125 -0.15625,0.1875 C 4.3125,-0.5 3.671875,-0.140625 3.03125,-0.140625 c -0.734375,0 -1.703125,-0.640625 -1.703125,-2.453125 0,-1.984375 1.015625,-2.46875 1.609375,-2.46875 0.453125,0 1.109375,0.171875 1.390625,0.640625 z m 0,0"
               style="stroke:none"
               inkscape:connector-curvature="0" />
          </symbol>
          <symbol
             id="lx-text1586-glyph0-11"
             overflow="visible"
             style="overflow:visible">
            <path
               id="path2432"
               d="m 5.484375,-2.5625 c 0,-1.53125 -1.171875,-2.765625 -2.5625,-2.765625 -1.421875,0 -2.5625,1.265625 -2.5625,2.765625 0,1.53125 1.1875,2.6875 2.5625,2.6875 1.40625,0 2.5625,-1.171875 2.5625,-2.6875 z m -2.5625,2.421875 c -0.4375,0 -0.96875,-0.1875 -1.3125,-0.78125 -0.328125,-0.53125 -0.34375,-1.234375 -0.34375,-1.75 0,-0.453125 0,-1.171875 0.375,-1.71875 C 1.96875,-4.90625 2.5,-5.09375 2.921875,-5.09375 c 0.453125,0 0.96875,0.21875 1.28125,0.6875 0.375,0.546875 0.375,1.296875 0.375,1.734375 0,0.421875 0,1.171875 -0.3125,1.734375 C 3.9375,-0.375 3.375,-0.140625 2.921875,-0.140625 Z m 0,0"
               style="stroke:none"
               inkscape:connector-curvature="0" />
          </symbol>
          <symbol
             id="lx-text1586-glyph0-12"
             overflow="visible"
             style="overflow:visible">
            <path
               id="path2435"
               d="m 8.578125,-2.90625 c 0,-1.109375 0,-1.4375 -0.28125,-1.828125 -0.34375,-0.46875 -0.90625,-0.53125 -1.3125,-0.53125 -1,0 -1.5,0.71875 -1.6875,1.171875 -0.171875,-0.921875 -0.8125,-1.171875 -1.5625,-1.171875 -1.171875,0 -1.625,0.984375 -1.71875,1.21875 v -1.21875 l -1.640625,0.125 v 0.34375 c 0.8125,0 0.921875,0.09375 0.921875,0.671875 v 3.234375 c 0,0.546875 -0.140625,0.546875 -0.921875,0.546875 V 0 c 0.3125,-0.03125 0.96875,-0.03125 1.296875,-0.03125 0.34375,0 1,0 1.296875,0.03125 v -0.34375 c -0.75,0 -0.90625,0 -0.90625,-0.546875 v -2.21875 c 0,-1.25 0.828125,-1.921875 1.578125,-1.921875 0.734375,0 0.90625,0.609375 0.90625,1.34375 v 2.796875 c 0,0.546875 -0.140625,0.546875 -0.90625,0.546875 V 0 c 0.296875,-0.03125 0.953125,-0.03125 1.28125,-0.03125 0.34375,0 1,0 1.3125,0.03125 v -0.34375 c -0.765625,0 -0.921875,0 -0.921875,-0.546875 v -2.21875 c 0,-1.25 0.828125,-1.921875 1.578125,-1.921875 0.734375,0 0.90625,0.609375 0.90625,1.34375 v 2.796875 c 0,0.546875 -0.140625,0.546875 -0.90625,0.546875 V 0 c 0.3125,-0.03125 0.953125,-0.03125 1.28125,-0.03125 0.34375,0 1,0 1.3125,0.03125 v -0.34375 c -0.609375,0 -0.90625,0 -0.90625,-0.359375 z m 0,0"
               style="stroke:none"
               inkscape:connector-curvature="0" />
          </symbol>
          <symbol
             id="lx-text1586-glyph0-13"
             overflow="visible"
             style="overflow:visible">
            <path
               id="path2438"
               d="m 2.078125,-7.359375 c 0,-0.3125 -0.25,-0.59375 -0.578125,-0.59375 -0.3125,0 -0.578125,0.25 -0.578125,0.578125 0,0.359375 0.28125,0.578125 0.578125,0.578125 0.359375,0 0.578125,-0.296875 0.578125,-0.5625 z M 0.4375,-5.140625 v 0.34375 c 0.75,0 0.859375,0.078125 0.859375,0.65625 v 3.25 c 0,0.546875 -0.125,0.546875 -0.90625,0.546875 V 0 c 0.34375,-0.03125 0.90625,-0.03125 1.265625,-0.03125 0.125,0 0.8125,0 1.21875,0.03125 v -0.34375 c -0.765625,0 -0.8125,-0.0625 -0.8125,-0.53125 v -4.390625 z m 0,0"
               style="stroke:none"
               inkscape:connector-curvature="0" />
          </symbol>
        </g>
      </defs>
      <g
         id="lx-text1586-surface1">
        <g
           id="g2447"
           style="fill:#000000;fill-opacity:1">
          <use
             id="use2445"
             y="0"
             x="0"
             xlink:href="#lx-text1586-glyph0-1"
             width="100%"
             height="100%" />
        </g>
        <g
           id="g2463"
           style="fill:#000000;fill-opacity:1">
          <use
             id="use2449"
             y="0"
             x="7.7947898"
             xlink:href="#lx-text1586-glyph0-2"
             width="100%"
             height="100%" />
          <use
             id="use2451"
             y="0"
             x="12.997693"
             xlink:href="#lx-text1586-glyph0-3"
             width="100%"
             height="100%" />
          <use
             id="use2453"
             y="0"
             x="17.614792"
             xlink:href="#lx-text1586-glyph0-4"
             width="100%"
             height="100%" />
          <use
             id="use2455"
             y="0"
             x="22.167332"
             xlink:href="#lx-text1586-glyph0-2"
             width="100%"
             height="100%" />
          <use
             id="use2457"
             y="0"
             x="27.370235"
             xlink:href="#lx-text1586-glyph0-5"
             width="100%"
             height="100%" />
          <use
             id="use2459"
             y="0"
             x="31.922775"
             xlink:href="#lx-text1586-glyph0-6"
             width="100%"
             height="100%" />
          <use
             id="use2461"
             y="0"
             x="38.426403"
             xlink:href="#lx-text1586-glyph0-7"
             width="100%"
             height="100%" />
        </g>
        <g
           id="g2471"
           style="fill:#000000;fill-opacity:1">
          <use
             id="use2465"
             y="0"
             x="43.956879"
             xlink:href="#lx-text1586-glyph0-8"
             width="100%"
             height="100%" />
          <use
             id="use2467"
             y="0"
             x="50.135326"
             xlink:href="#lx-text1586-glyph0-9"
             width="100%"
             height="100%" />
          <use
             id="use2469"
             y="0"
             x="53.387142"
             xlink:href="#lx-text1586-glyph0-3"
             width="100%"
             height="100%" />
        </g>
        <g
           id="g2475"
           style="fill:#000000;fill-opacity:1">
          <use
             id="use2473"
             y="0"
             x="61.913589"
             xlink:href="#lx-text1586-glyph0-10"
             width="100%"
             height="100%" />
        </g>
        <g
           id="g2487"
           style="fill:#000000;fill-opacity:1">
          <use
             id="use2477"
             y="0"
             x="67.104538"
             xlink:href="#lx-text1586-glyph0-11"
             width="100%"
             height="100%" />
          <use
             id="use2479"
             y="0"
             x="72.957802"
             xlink:href="#lx-text1586-glyph0-12"
             width="100%"
             height="100%" />
          <use
             id="use2481"
             y="0"
             x="82.713249"
             xlink:href="#lx-text1586-glyph0-12"
             width="100%"
             height="100%" />
          <use
             id="use2483"
             y="0"
             x="92.468689"
             xlink:href="#lx-text1586-glyph0-13"
             width="100%"
             height="100%" />
          <use
             id="use2485"
             y="0"
             x="95.720505"
             xlink:href="#lx-text1586-glyph0-4"
             width="100%"
             height="100%" />
        </g>
      </g>
    </g>
    <g
       id="lx-text1590"
       transform="matrix(0.352778,0,0,0.352778,9.8291232,38.916624)">
      <defs
         id="defs2520">
        <g
           id="g2518">
          <symbol
             id="lx-text1590-glyph0-0"
             overflow="visible"
             style="overflow:visible">
            <path
               id="path2491"
               d=""
               style="stroke:none"
               inkscape:connector-curvature="0" />
          </symbol>
          <symbol
             id="lx-text1590-glyph0-1"
             overflow="visible"
             style="overflow:visible">
            <path
               id="path2494"
               d="M 6.8125,-3.0625 H 6.546875 C 6.4375,-1.859375 6.28125,-0.34375 4.1875,-0.34375 H 3.140625 C 2.625,-0.34375 2.59375,-0.4375 2.59375,-0.828125 V -7.25 c 0,-0.421875 0.03125,-0.5625 1.0625,-0.5625 h 0.359375 v -0.34375 c -0.34375,0.015625 -1.390625,0.015625 -1.8125,0.015625 -0.359375,0 -1.421875,0 -1.71875,-0.015625 v 0.34375 h 0.25 C 1.59375,-7.8125 1.625,-7.703125 1.625,-7.25 v 6.34375 c 0,0.4375 -0.03125,0.5625 -0.890625,0.5625 h -0.25 V 0 H 6.5 Z m 0,0"
               style="stroke:none"
               inkscape:connector-curvature="0" />
          </symbol>
          <symbol
             id="lx-text1590-glyph0-2"
             overflow="visible"
             style="overflow:visible">
            <path
               id="path2497"
               d="m 4.609375,-3.1875 c 0,-0.65625 0,-1.125 -0.515625,-1.59375 C 3.671875,-5.15625 3.125,-5.328125 2.609375,-5.328125 1.625,-5.328125 0.875,-4.6875 0.875,-3.90625 c 0,0.34375 0.21875,0.515625 0.5,0.515625 0.28125,0 0.484375,-0.203125 0.484375,-0.5 C 1.859375,-4.375 1.4375,-4.375 1.25,-4.375 c 0.28125,-0.5 0.859375,-0.71875 1.328125,-0.71875 0.546875,0 1.265625,0.453125 1.265625,1.53125 v 0.484375 c -2.40625,0.03125 -3.3125,1.03125 -3.3125,1.953125 0,0.953125 1.09375,1.25 1.828125,1.25 0.78125,0 1.328125,-0.484375 1.546875,-1.0625 0.046875,0.5625 0.421875,1 0.9375,1 0.25,0 0.9375,-0.171875 0.9375,-1.125 V -1.734375 H 5.515625 V -1.0625 c 0,0.6875 -0.28125,0.78125 -0.453125,0.78125 -0.453125,0 -0.453125,-0.640625 -0.453125,-0.8125 z m -0.765625,1.5 c 0,1.171875 -0.875,1.5625 -1.390625,1.5625 -0.59375,0 -1.078125,-0.421875 -1.078125,-1 0,-1.578125 2.03125,-1.71875 2.46875,-1.75 z m 0,0"
               style="stroke:none"
               inkscape:connector-curvature="0" />
          </symbol>
          <symbol
             id="lx-text1590-glyph0-3"
             overflow="visible"
             style="overflow:visible">
            <path
               id="path2500"
               d="m 3.921875,-5.0625 c 0,-0.203125 0,-0.265625 -0.125,-0.265625 -0.09375,0 -0.3125,0.265625 -0.40625,0.375 -0.359375,-0.3125 -0.734375,-0.375 -1.125,-0.375 -1.4375,0 -1.875,0.78125 -1.875,1.4375 0,0.140625 0,0.5625 0.453125,0.96875 0.390625,0.34375 0.796875,0.421875 1.34375,0.53125 0.65625,0.125 0.8125,0.171875 1.109375,0.40625 0.21875,0.171875 0.375,0.4375 0.375,0.78125 C 3.671875,-0.6875 3.375,-0.125 2.3125,-0.125 1.53125,-0.125 0.953125,-0.578125 0.6875,-1.765625 0.640625,-1.984375 0.640625,-2 0.640625,-2.015625 0.609375,-2.0625 0.5625,-2.0625 0.53125,-2.0625 0.390625,-2.0625 0.390625,-2 0.390625,-1.78125 v 1.625 c 0,0.21875 0,0.28125 0.125,0.28125 0.0625,0 0.0625,-0.015625 0.265625,-0.265625 C 0.84375,-0.234375 0.84375,-0.25 1.03125,-0.4375 1.484375,0.125 2.125,0.125 2.328125,0.125 c 1.25,0 1.875,-0.703125 1.875,-1.640625 0,-0.640625 -0.390625,-1.03125 -0.5,-1.140625 -0.421875,-0.375 -0.75,-0.4375 -1.546875,-0.578125 -0.34375,-0.078125 -1.21875,-0.25 -1.21875,-0.96875 0,-0.359375 0.25,-0.90625 1.328125,-0.90625 1.296875,0 1.375,1.109375 1.390625,1.46875 0.015625,0.109375 0.09375,0.109375 0.140625,0.109375 0.125,0 0.125,-0.0625 0.125,-0.28125 z m 0,0"
               style="stroke:none"
               inkscape:connector-curvature="0" />
          </symbol>
          <symbol
             id="lx-text1590-glyph0-4"
             overflow="visible"
             style="overflow:visible">
            <path
               id="path2503"
               d="M 2.015625,-4.8125 H 3.6875 V -5.15625 H 2.015625 v -2.1875 H 1.75 C 1.734375,-6.234375 1.296875,-5.078125 0.21875,-5.046875 V -4.8125 h 1.015625 v 3.328125 c 0,1.328125 0.875,1.609375 1.515625,1.609375 0.75,0 1.140625,-0.75 1.140625,-1.609375 V -2.15625 h -0.25 V -1.5 c 0,0.859375 -0.359375,1.359375 -0.8125,1.359375 -0.8125,0 -0.8125,-1.109375 -0.8125,-1.3125 z m 0,0"
               style="stroke:none"
               inkscape:connector-curvature="0" />
          </symbol>
          <symbol
             id="lx-text1590-glyph0-5"
             overflow="visible"
             style="overflow:visible">
            <path
               id="path2506"
               d="m 4.328125,-4.421875 c -0.140625,0 -0.59375,0 -0.59375,0.484375 0,0.296875 0.203125,0.5 0.5,0.5 0.265625,0 0.5,-0.171875 0.5,-0.515625 0,-0.796875 -0.84375,-1.375 -1.8125,-1.375 -1.390625,0 -2.5,1.234375 -2.5,2.75 0,1.53125 1.140625,2.703125 2.5,2.703125 1.578125,0 1.9375,-1.4375 1.9375,-1.546875 0,-0.109375 -0.09375,-0.109375 -0.125,-0.109375 -0.109375,0 -0.125,0.03125 -0.15625,0.1875 C 4.3125,-0.5 3.671875,-0.140625 3.03125,-0.140625 c -0.734375,0 -1.703125,-0.640625 -1.703125,-2.453125 0,-1.984375 1.015625,-2.46875 1.609375,-2.46875 0.453125,0 1.109375,0.171875 1.390625,0.640625 z m 0,0"
               style="stroke:none"
               inkscape:connector-curvature="0" />
          </symbol>
          <symbol
             id="lx-text1590-glyph0-6"
             overflow="visible"
             style="overflow:visible">
            <path
               id="path2509"
               d="m 5.484375,-2.5625 c 0,-1.53125 -1.171875,-2.765625 -2.5625,-2.765625 -1.421875,0 -2.5625,1.265625 -2.5625,2.765625 0,1.53125 1.1875,2.6875 2.5625,2.6875 1.40625,0 2.5625,-1.171875 2.5625,-2.6875 z m -2.5625,2.421875 c -0.4375,0 -0.96875,-0.1875 -1.3125,-0.78125 -0.328125,-0.53125 -0.34375,-1.234375 -0.34375,-1.75 0,-0.453125 0,-1.171875 0.375,-1.71875 C 1.96875,-4.90625 2.5,-5.09375 2.921875,-5.09375 c 0.453125,0 0.96875,0.21875 1.28125,0.6875 0.375,0.546875 0.375,1.296875 0.375,1.734375 0,0.421875 0,1.171875 -0.3125,1.734375 C 3.9375,-0.375 3.375,-0.140625 2.921875,-0.140625 Z m 0,0"
               style="stroke:none"
               inkscape:connector-curvature="0" />
          </symbol>
          <symbol
             id="lx-text1590-glyph0-7"
             overflow="visible"
             style="overflow:visible">
            <path
               id="path2512"
               d="m 8.578125,-2.90625 c 0,-1.109375 0,-1.4375 -0.28125,-1.828125 -0.34375,-0.46875 -0.90625,-0.53125 -1.3125,-0.53125 -1,0 -1.5,0.71875 -1.6875,1.171875 -0.171875,-0.921875 -0.8125,-1.171875 -1.5625,-1.171875 -1.171875,0 -1.625,0.984375 -1.71875,1.21875 v -1.21875 l -1.640625,0.125 v 0.34375 c 0.8125,0 0.921875,0.09375 0.921875,0.671875 v 3.234375 c 0,0.546875 -0.140625,0.546875 -0.921875,0.546875 V 0 c 0.3125,-0.03125 0.96875,-0.03125 1.296875,-0.03125 0.34375,0 1,0 1.296875,0.03125 v -0.34375 c -0.75,0 -0.90625,0 -0.90625,-0.546875 v -2.21875 c 0,-1.25 0.828125,-1.921875 1.578125,-1.921875 0.734375,0 0.90625,0.609375 0.90625,1.34375 v 2.796875 c 0,0.546875 -0.140625,0.546875 -0.90625,0.546875 V 0 c 0.296875,-0.03125 0.953125,-0.03125 1.28125,-0.03125 0.34375,0 1,0 1.3125,0.03125 v -0.34375 c -0.765625,0 -0.921875,0 -0.921875,-0.546875 v -2.21875 c 0,-1.25 0.828125,-1.921875 1.578125,-1.921875 0.734375,0 0.90625,0.609375 0.90625,1.34375 v 2.796875 c 0,0.546875 -0.140625,0.546875 -0.90625,0.546875 V 0 c 0.3125,-0.03125 0.953125,-0.03125 1.28125,-0.03125 0.34375,0 1,0 1.3125,0.03125 v -0.34375 c -0.609375,0 -0.90625,0 -0.90625,-0.359375 z m 0,0"
               style="stroke:none"
               inkscape:connector-curvature="0" />
          </symbol>
          <symbol
             id="lx-text1590-glyph0-8"
             overflow="visible"
             style="overflow:visible">
            <path
               id="path2515"
               d="m 2.078125,-7.359375 c 0,-0.3125 -0.25,-0.59375 -0.578125,-0.59375 -0.3125,0 -0.578125,0.25 -0.578125,0.578125 0,0.359375 0.28125,0.578125 0.578125,0.578125 0.359375,0 0.578125,-0.296875 0.578125,-0.5625 z M 0.4375,-5.140625 v 0.34375 c 0.75,0 0.859375,0.078125 0.859375,0.65625 v 3.25 c 0,0.546875 -0.125,0.546875 -0.90625,0.546875 V 0 c 0.34375,-0.03125 0.90625,-0.03125 1.265625,-0.03125 0.125,0 0.8125,0 1.21875,0.03125 v -0.34375 c -0.765625,0 -0.8125,-0.0625 -0.8125,-0.53125 v -4.390625 z m 0,0"
               style="stroke:none"
               inkscape:connector-curvature="0" />
          </symbol>
        </g>
      </defs>
      <g
         id="lx-text1590-surface1">
        <g
           id="g2530"
           style="fill:#000000;fill-opacity:1">
          <use
             id="use2522"
             y="0"
             x="0"
             xlink:href="#lx-text1590-glyph0-1"
             width="100%"
             height="100%" />
          <use
             id="use2524"
             y="0"
             x="7.3141909"
             xlink:href="#lx-text1590-glyph0-2"
             width="100%"
             height="100%" />
          <use
             id="use2526"
             y="0"
             x="13.167457"
             xlink:href="#lx-text1590-glyph0-3"
             width="100%"
             height="100%" />
          <use
             id="use2528"
             y="0"
             x="17.784555"
             xlink:href="#lx-text1590-glyph0-4"
             width="100%"
             height="100%" />
        </g>
        <g
           id="g2544"
           style="fill:#000000;fill-opacity:1">
          <use
             id="use2532"
             y="0"
             x="26.234491"
             xlink:href="#lx-text1590-glyph0-5"
             width="100%"
             height="100%" />
          <use
             id="use2534"
             y="0"
             x="31.437393"
             xlink:href="#lx-text1590-glyph0-6"
             width="100%"
             height="100%" />
          <use
             id="use2536"
             y="0"
             x="37.290661"
             xlink:href="#lx-text1590-glyph0-7"
             width="100%"
             height="100%" />
          <use
             id="use2538"
             y="0"
             x="47.046104"
             xlink:href="#lx-text1590-glyph0-7"
             width="100%"
             height="100%" />
          <use
             id="use2540"
             y="0"
             x="56.801544"
             xlink:href="#lx-text1590-glyph0-8"
             width="100%"
             height="100%" />
          <use
             id="use2542"
             y="0"
             x="60.05336"
             xlink:href="#lx-text1590-glyph0-4"
             width="100%"
             height="100%" />
        </g>
      </g>
    </g>
    <g
       id="lx-text1594"
       transform="matrix(0.352778,0,0,0.352778,9.8291232,28.941429)">
      <defs
         id="defs2595">
        <g
           id="g2593">
          <symbol
             id="lx-text1594-glyph0-0"
             overflow="visible"
             style="overflow:visible">
            <path
               id="path2548"
               d=""
               style="stroke:none"
               inkscape:connector-curvature="0" />
          </symbol>
          <symbol
             id="lx-text1594-glyph0-1"
             overflow="visible"
             style="overflow:visible">
            <path
               id="path2551"
               d="M 2.703125,-8 C 2.59375,-8.15625 2.578125,-8.15625 2.3125,-8.15625 H 0.484375 v 0.34375 c 0.515625,0 0.8125,0 1.140625,0.078125 V -1.25 c 0,0.34375 0,0.90625 -1.140625,0.90625 V 0 c 0.3125,-0.03125 0.953125,-0.03125 1.28125,-0.03125 0.34375,0 0.96875,0 1.28125,0.03125 V -0.34375 C 1.90625,-0.34375 1.90625,-0.90625 1.90625,-1.25 v -6.296875 c 0.109375,0.09375 0.109375,0.125 0.203125,0.265625 L 6.78125,-0.171875 C 6.890625,-0.015625 6.90625,0 7,0 7.09375,0 7.125,-0.046875 7.140625,-0.078125 V -6.90625 c 0,-0.34375 0,-0.90625 1.125,-0.90625 V -8.15625 C 7.953125,-8.140625 7.328125,-8.140625 7,-8.140625 c -0.34375,0 -0.96875,0 -1.28125,-0.015625 v 0.34375 c 1.125,0 1.125,0.5625 1.125,0.90625 v 5.21875 z m 0,0"
               style="stroke:none"
               inkscape:connector-curvature="0" />
          </symbol>
          <symbol
             id="lx-text1594-glyph0-2"
             overflow="visible"
             style="overflow:visible">
            <path
               id="path2554"
               d="m 5.484375,-2.5625 c 0,-1.53125 -1.171875,-2.765625 -2.5625,-2.765625 -1.421875,0 -2.5625,1.265625 -2.5625,2.765625 0,1.53125 1.1875,2.6875 2.5625,2.6875 1.40625,0 2.5625,-1.171875 2.5625,-2.6875 z m -2.5625,2.421875 c -0.4375,0 -0.96875,-0.1875 -1.3125,-0.78125 -0.328125,-0.53125 -0.34375,-1.234375 -0.34375,-1.75 0,-0.453125 0,-1.171875 0.375,-1.71875 C 1.96875,-4.90625 2.5,-5.09375 2.921875,-5.09375 c 0.453125,0 0.96875,0.21875 1.28125,0.6875 0.375,0.546875 0.375,1.296875 0.375,1.734375 0,0.421875 0,1.171875 -0.3125,1.734375 C 3.9375,-0.375 3.375,-0.140625 2.921875,-0.140625 Z m 0,0"
               style="stroke:none"
               inkscape:connector-curvature="0" />
          </symbol>
          <symbol
             id="lx-text1594-glyph0-3"
             overflow="visible"
             style="overflow:visible">
            <path
               id="path2557"
               d="m 5.3125,-2.90625 c 0,-1.109375 0,-1.4375 -0.265625,-1.828125 -0.34375,-0.46875 -0.90625,-0.53125 -1.3125,-0.53125 -1.171875,0 -1.625,0.984375 -1.71875,1.21875 v -1.21875 l -1.640625,0.125 v 0.34375 c 0.8125,0 0.921875,0.09375 0.921875,0.671875 v 3.234375 c 0,0.546875 -0.140625,0.546875 -0.921875,0.546875 V 0 c 0.3125,-0.03125 0.96875,-0.03125 1.296875,-0.03125 0.34375,0 1,0 1.296875,0.03125 v -0.34375 c -0.75,0 -0.90625,0 -0.90625,-0.546875 v -2.21875 c 0,-1.25 0.828125,-1.921875 1.578125,-1.921875 0.734375,0 0.90625,0.609375 0.90625,1.34375 v 2.796875 c 0,0.546875 -0.140625,0.546875 -0.90625,0.546875 V 0 c 0.296875,-0.03125 0.953125,-0.03125 1.28125,-0.03125 0.34375,0 1,0 1.3125,0.03125 v -0.34375 c -0.609375,0 -0.90625,0 -0.921875,-0.359375 z m 0,0"
               style="stroke:none"
               inkscape:connector-curvature="0" />
          </symbol>
          <symbol
             id="lx-text1594-glyph0-4"
             overflow="visible"
             style="overflow:visible">
            <path
               id="path2560"
               d="M 3.234375,-2.265625 V -2.90625 H 0.125 v 0.640625 z m 0,0"
               style="stroke:none"
               inkscape:connector-curvature="0" />
          </symbol>
          <symbol
             id="lx-text1594-glyph0-5"
             overflow="visible"
             style="overflow:visible">
            <path
               id="path2563"
               d="m 4.328125,-4.421875 c -0.140625,0 -0.59375,0 -0.59375,0.484375 0,0.296875 0.203125,0.5 0.5,0.5 0.265625,0 0.5,-0.171875 0.5,-0.515625 0,-0.796875 -0.84375,-1.375 -1.8125,-1.375 -1.390625,0 -2.5,1.234375 -2.5,2.75 0,1.53125 1.140625,2.703125 2.5,2.703125 1.578125,0 1.9375,-1.4375 1.9375,-1.546875 0,-0.109375 -0.09375,-0.109375 -0.125,-0.109375 -0.109375,0 -0.125,0.03125 -0.15625,0.1875 C 4.3125,-0.5 3.671875,-0.140625 3.03125,-0.140625 c -0.734375,0 -1.703125,-0.640625 -1.703125,-2.453125 0,-1.984375 1.015625,-2.46875 1.609375,-2.46875 0.453125,0 1.109375,0.171875 1.390625,0.640625 z m 0,0"
               style="stroke:none"
               inkscape:connector-curvature="0" />
          </symbol>
          <symbol
             id="lx-text1594-glyph0-6"
             overflow="visible"
             style="overflow:visible">
            <path
               id="path2566"
               d="m 8.578125,-2.90625 c 0,-1.109375 0,-1.4375 -0.28125,-1.828125 -0.34375,-0.46875 -0.90625,-0.53125 -1.3125,-0.53125 -1,0 -1.5,0.71875 -1.6875,1.171875 -0.171875,-0.921875 -0.8125,-1.171875 -1.5625,-1.171875 -1.171875,0 -1.625,0.984375 -1.71875,1.21875 v -1.21875 l -1.640625,0.125 v 0.34375 c 0.8125,0 0.921875,0.09375 0.921875,0.671875 v 3.234375 c 0,0.546875 -0.140625,0.546875 -0.921875,0.546875 V 0 c 0.3125,-0.03125 0.96875,-0.03125 1.296875,-0.03125 0.34375,0 1,0 1.296875,0.03125 v -0.34375 c -0.75,0 -0.90625,0 -0.90625,-0.546875 v -2.21875 c 0,-1.25 0.828125,-1.921875 1.578125,-1.921875 0.734375,0 0.90625,0.609375 0.90625,1.34375 v 2.796875 c 0,0.546875 -0.140625,0.546875 -0.90625,0.546875 V 0 c 0.296875,-0.03125 0.953125,-0.03125 1.28125,-0.03125 0.34375,0 1,0 1.3125,0.03125 v -0.34375 c -0.765625,0 -0.921875,0 -0.921875,-0.546875 v -2.21875 c 0,-1.25 0.828125,-1.921875 1.578125,-1.921875 0.734375,0 0.90625,0.609375 0.90625,1.34375 v 2.796875 c 0,0.546875 -0.140625,0.546875 -0.90625,0.546875 V 0 c 0.3125,-0.03125 0.953125,-0.03125 1.28125,-0.03125 0.34375,0 1,0 1.3125,0.03125 v -0.34375 c -0.609375,0 -0.90625,0 -0.90625,-0.359375 z m 0,0"
               style="stroke:none"
               inkscape:connector-curvature="0" />
          </symbol>
          <symbol
             id="lx-text1594-glyph0-7"
             overflow="visible"
             style="overflow:visible">
            <path
               id="path2569"
               d="m 2.078125,-7.359375 c 0,-0.3125 -0.25,-0.59375 -0.578125,-0.59375 -0.3125,0 -0.578125,0.25 -0.578125,0.578125 0,0.359375 0.28125,0.578125 0.578125,0.578125 0.359375,0 0.578125,-0.296875 0.578125,-0.5625 z M 0.4375,-5.140625 v 0.34375 c 0.75,0 0.859375,0.078125 0.859375,0.65625 v 3.25 c 0,0.546875 -0.125,0.546875 -0.90625,0.546875 V 0 c 0.34375,-0.03125 0.90625,-0.03125 1.265625,-0.03125 0.125,0 0.8125,0 1.21875,0.03125 v -0.34375 c -0.765625,0 -0.8125,-0.0625 -0.8125,-0.53125 v -4.390625 z m 0,0"
               style="stroke:none"
               inkscape:connector-curvature="0" />
          </symbol>
          <symbol
             id="lx-text1594-glyph0-8"
             overflow="visible"
             style="overflow:visible">
            <path
               id="path2572"
               d="M 2.015625,-4.8125 H 3.6875 V -5.15625 H 2.015625 v -2.1875 H 1.75 C 1.734375,-6.234375 1.296875,-5.078125 0.21875,-5.046875 V -4.8125 h 1.015625 v 3.328125 c 0,1.328125 0.875,1.609375 1.515625,1.609375 0.75,0 1.140625,-0.75 1.140625,-1.609375 V -2.15625 h -0.25 V -1.5 c 0,0.859375 -0.359375,1.359375 -0.8125,1.359375 -0.8125,0 -0.8125,-1.109375 -0.8125,-1.3125 z m 0,0"
               style="stroke:none"
               inkscape:connector-curvature="0" />
          </symbol>
          <symbol
             id="lx-text1594-glyph0-9"
             overflow="visible"
             style="overflow:visible">
            <path
               id="path2575"
               d="m 4.578125,-2.765625 c 0.265625,0 0.28125,0 0.28125,-0.234375 0,-1.203125 -0.640625,-2.328125 -2.09375,-2.328125 -1.359375,0 -2.40625,1.234375 -2.40625,2.703125 0,1.578125 1.21875,2.75 2.546875,2.75 1.421875,0 1.953125,-1.296875 1.953125,-1.546875 0,-0.078125 -0.046875,-0.125 -0.125,-0.125 -0.09375,0 -0.125,0.0625 -0.140625,0.125 -0.3125,1 -1.109375,1.28125 -1.625,1.28125 -0.5,0 -1.703125,-0.34375 -1.703125,-2.40625 v -0.21875 z M 1.28125,-3 c 0.09375,-1.875 1.140625,-2.09375 1.484375,-2.09375 1.28125,0 1.34375,1.6875 1.359375,2.09375 z m 0,0"
               style="stroke:none"
               inkscape:connector-curvature="0" />
          </symbol>
          <symbol
             id="lx-text1594-glyph0-10"
             overflow="visible"
             style="overflow:visible">
            <path
               id="path2578"
               d="M 3.578125,-8.15625 V -7.8125 C 4.40625,-7.8125 4.5,-7.734375 4.5,-7.140625 V -4.5 C 4.25,-4.859375 3.734375,-5.265625 3,-5.265625 c -1.390625,0 -2.578125,1.171875 -2.578125,2.703125 0,1.515625 1.125,2.6875 2.453125,2.6875 0.90625,0 1.421875,-0.609375 1.59375,-0.828125 V 0.125 L 6.15625,0 V -0.34375 C 5.34375,-0.34375 5.25,-0.4375 5.25,-1.015625 v -7.28125 z m 0.890625,6.75 c 0,0.21875 0,0.265625 -0.171875,0.515625 -0.28125,0.421875 -0.765625,0.765625 -1.375,0.765625 -0.296875,0 -1.59375,-0.109375 -1.59375,-2.4375 0,-0.859375 0.140625,-1.328125 0.40625,-1.734375 0.234375,-0.359375 0.71875,-0.734375 1.3125,-0.734375 0.75,0 1.15625,0.53125 1.28125,0.734375 0.140625,0.203125 0.140625,0.21875 0.140625,0.4375 z m 0,0"
               style="stroke:none"
               inkscape:connector-curvature="0" />
          </symbol>
          <symbol
             id="lx-text1594-glyph0-11"
             overflow="visible"
             style="overflow:visible">
            <path
               id="path2581"
               d="m 4.609375,-3.1875 c 0,-0.65625 0,-1.125 -0.515625,-1.59375 C 3.671875,-5.15625 3.125,-5.328125 2.609375,-5.328125 1.625,-5.328125 0.875,-4.6875 0.875,-3.90625 c 0,0.34375 0.21875,0.515625 0.5,0.515625 0.28125,0 0.484375,-0.203125 0.484375,-0.5 C 1.859375,-4.375 1.4375,-4.375 1.25,-4.375 c 0.28125,-0.5 0.859375,-0.71875 1.328125,-0.71875 0.546875,0 1.265625,0.453125 1.265625,1.53125 v 0.484375 c -2.40625,0.03125 -3.3125,1.03125 -3.3125,1.953125 0,0.953125 1.09375,1.25 1.828125,1.25 0.78125,0 1.328125,-0.484375 1.546875,-1.0625 0.046875,0.5625 0.421875,1 0.9375,1 0.25,0 0.9375,-0.171875 0.9375,-1.125 V -1.734375 H 5.515625 V -1.0625 c 0,0.6875 -0.28125,0.78125 -0.453125,0.78125 -0.453125,0 -0.453125,-0.640625 -0.453125,-0.8125 z m -0.765625,1.5 c 0,1.171875 -0.875,1.5625 -1.390625,1.5625 -0.59375,0 -1.078125,-0.421875 -1.078125,-1 0,-1.578125 2.03125,-1.71875 2.46875,-1.75 z m 0,0"
               style="stroke:none"
               inkscape:connector-curvature="0" />
          </symbol>
          <symbol
             id="lx-text1594-glyph0-12"
             overflow="visible"
             style="overflow:visible">
            <path
               id="path2584"
               d="M 2.0625,-8.296875 0.390625,-8.15625 v 0.34375 c 0.8125,0 0.90625,0.078125 0.90625,0.671875 v 6.25 c 0,0.546875 -0.125,0.546875 -0.90625,0.546875 V 0 c 0.34375,-0.03125 0.921875,-0.03125 1.28125,-0.03125 0.359375,0 0.953125,0 1.296875,0.03125 v -0.34375 c -0.765625,0 -0.90625,0 -0.90625,-0.546875 z m 0,0"
               style="stroke:none"
               inkscape:connector-curvature="0" />
          </symbol>
          <symbol
             id="lx-text1594-glyph0-13"
             overflow="visible"
             style="overflow:visible">
            <path
               id="path2587"
               d="m 2,-2.78125 c 0,-1.15625 0.46875,-2.25 1.390625,-2.25 0.09375,0 0.125,0 0.171875,0.015625 -0.09375,0.046875 -0.28125,0.109375 -0.28125,0.4375 0,0.34375 0.265625,0.484375 0.453125,0.484375 0.25,0 0.484375,-0.15625 0.484375,-0.484375 0,-0.359375 -0.328125,-0.6875 -0.84375,-0.6875 -1.015625,0 -1.359375,1.09375 -1.421875,1.328125 H 1.9375 v -1.328125 l -1.609375,0.125 v 0.34375 c 0.8125,0 0.921875,0.09375 0.921875,0.671875 v 3.234375 c 0,0.546875 -0.140625,0.546875 -0.921875,0.546875 V 0 c 0.34375,-0.03125 1,-0.03125 1.359375,-0.03125 0.328125,0 1.171875,0 1.4375,0.03125 V -0.34375 H 2.890625 C 2.015625,-0.34375 2,-0.484375 2,-0.90625 Z m 0,0"
               style="stroke:none"
               inkscape:connector-curvature="0" />
          </symbol>
          <symbol
             id="lx-text1594-glyph0-14"
             overflow="visible"
             style="overflow:visible">
            <path
               id="path2590"
               d="m 3.921875,-5.0625 c 0,-0.203125 0,-0.265625 -0.125,-0.265625 -0.09375,0 -0.3125,0.265625 -0.40625,0.375 -0.359375,-0.3125 -0.734375,-0.375 -1.125,-0.375 -1.4375,0 -1.875,0.78125 -1.875,1.4375 0,0.140625 0,0.5625 0.453125,0.96875 0.390625,0.34375 0.796875,0.421875 1.34375,0.53125 0.65625,0.125 0.8125,0.171875 1.109375,0.40625 0.21875,0.171875 0.375,0.4375 0.375,0.78125 C 3.671875,-0.6875 3.375,-0.125 2.3125,-0.125 1.53125,-0.125 0.953125,-0.578125 0.6875,-1.765625 0.640625,-1.984375 0.640625,-2 0.640625,-2.015625 0.609375,-2.0625 0.5625,-2.0625 0.53125,-2.0625 0.390625,-2.0625 0.390625,-2 0.390625,-1.78125 v 1.625 c 0,0.21875 0,0.28125 0.125,0.28125 0.0625,0 0.0625,-0.015625 0.265625,-0.265625 C 0.84375,-0.234375 0.84375,-0.25 1.03125,-0.4375 1.484375,0.125 2.125,0.125 2.328125,0.125 c 1.25,0 1.875,-0.703125 1.875,-1.640625 0,-0.640625 -0.390625,-1.03125 -0.5,-1.140625 -0.421875,-0.375 -0.75,-0.4375 -1.546875,-0.578125 -0.34375,-0.078125 -1.21875,-0.25 -1.21875,-0.96875 0,-0.359375 0.25,-0.90625 1.328125,-0.90625 1.296875,0 1.375,1.109375 1.390625,1.46875 0.015625,0.109375 0.09375,0.109375 0.140625,0.109375 0.125,0 0.125,-0.0625 0.125,-0.28125 z m 0,0"
               style="stroke:none"
               inkscape:connector-curvature="0" />
          </symbol>
        </g>
      </defs>
      <g
         id="lx-text1594-surface1">
        <g
           id="g2623"
           style="fill:#000000;fill-opacity:1">
          <use
             id="use2597"
             y="0"
             x="0"
             xlink:href="#lx-text1594-glyph0-1"
             width="100%"
             height="100%" />
          <use
             id="use2599"
             y="0"
             x="8.7751169"
             xlink:href="#lx-text1594-glyph0-2"
             width="100%"
             height="100%" />
          <use
             id="use2601"
             y="0"
             x="14.628383"
             xlink:href="#lx-text1594-glyph0-3"
             width="100%"
             height="100%" />
          <use
             id="use2603"
             y="0"
             x="21.132011"
             xlink:href="#lx-text1594-glyph0-4"
             width="100%"
             height="100%" />
          <use
             id="use2605"
             y="0"
             x="25.034189"
             xlink:href="#lx-text1594-glyph0-5"
             width="100%"
             height="100%" />
          <use
             id="use2607"
             y="0"
             x="30.237091"
             xlink:href="#lx-text1594-glyph0-2"
             width="100%"
             height="100%" />
          <use
             id="use2609"
             y="0"
             x="36.090359"
             xlink:href="#lx-text1594-glyph0-6"
             width="100%"
             height="100%" />
          <use
             id="use2611"
             y="0"
             x="45.845802"
             xlink:href="#lx-text1594-glyph0-6"
             width="100%"
             height="100%" />
          <use
             id="use2613"
             y="0"
             x="55.601246"
             xlink:href="#lx-text1594-glyph0-7"
             width="100%"
             height="100%" />
          <use
             id="use2615"
             y="0"
             x="58.853058"
             xlink:href="#lx-text1594-glyph0-8"
             width="100%"
             height="100%" />
          <use
             id="use2617"
             y="0"
             x="63.405598"
             xlink:href="#lx-text1594-glyph0-8"
             width="100%"
             height="100%" />
          <use
             id="use2619"
             y="0"
             x="67.958138"
             xlink:href="#lx-text1594-glyph0-9"
             width="100%"
             height="100%" />
          <use
             id="use2621"
             y="0"
             x="73.161041"
             xlink:href="#lx-text1594-glyph0-10"
             width="100%"
             height="100%" />
        </g>
        <g
           id="g2647"
           style="fill:#000000;fill-opacity:1">
          <use
             id="use2625"
             y="0"
             x="83.562065"
             xlink:href="#lx-text1594-glyph0-11"
             width="100%"
             height="100%" />
          <use
             id="use2627"
             y="0"
             x="89.415329"
             xlink:href="#lx-text1594-glyph0-12"
             width="100%"
             height="100%" />
          <use
             id="use2629"
             y="0"
             x="92.667145"
             xlink:href="#lx-text1594-glyph0-8"
             width="100%"
             height="100%" />
          <use
             id="use2631"
             y="0"
             x="97.219688"
             xlink:href="#lx-text1594-glyph0-9"
             width="100%"
             height="100%" />
          <use
             id="use2633"
             y="0"
             x="102.42259"
             xlink:href="#lx-text1594-glyph0-13"
             width="100%"
             height="100%" />
          <use
             id="use2635"
             y="0"
             x="106.97513"
             xlink:href="#lx-text1594-glyph0-11"
             width="100%"
             height="100%" />
          <use
             id="use2637"
             y="0"
             x="112.8284"
             xlink:href="#lx-text1594-glyph0-8"
             width="100%"
             height="100%" />
          <use
             id="use2639"
             y="0"
             x="117.38094"
             xlink:href="#lx-text1594-glyph0-7"
             width="100%"
             height="100%" />
          <use
             id="use2641"
             y="0"
             x="120.63275"
             xlink:href="#lx-text1594-glyph0-2"
             width="100%"
             height="100%" />
          <use
             id="use2643"
             y="0"
             x="126.48602"
             xlink:href="#lx-text1594-glyph0-3"
             width="100%"
             height="100%" />
          <use
             id="use2645"
             y="0"
             x="132.98964"
             xlink:href="#lx-text1594-glyph0-14"
             width="100%"
             height="100%" />
        </g>
      </g>
    </g>
  </g>
</svg>
